name C:\Users\r0593348\3dpredictsim\Results\Batchsim_tmt_linear_v2\Pog_s1_tmt_aCst_d05_k500_ig24_pas.mot
datacolumns 128
datarows 4
range 0.00000000 0.03241681
endheader
time	pelvis_tilt	pelvis_list	pelvis_rotation	pelvis_tx	pelvis_ty	pelvis_tz	hip_flexion_l	hip_adduction_l	hip_rotation_l	hip_flexion_r	hip_adduction_r	hip_rotation_r	knee_angle_l	knee_angle_r	ankle_angle_l	ankle_angle_r	subtalar_angle_l	subtalar_angle_r	tmt_angle_l	tmt_angle_r	mtp_angle_l	mtp_angle_r	lumbar_extension	lumbar_bending	lumbar_rotation	arm_flex_l	arm_add_l	arm_rot_l	arm_flex_r	arm_add_r	arm_rot_r	elbow_flex_l	elbow_flex_r	pro_sup_l	pro_sup_r	glut_med1_l/activation	glut_med2_l/activation	glut_med3_l/activation	glut_min1_l/activation	glut_min2_l/activation	glut_min3_l/activation	semimem_l/activation	semiten_l/activation	bifemlh_l/activation	bifemsh_l/activation	sar_l/activation	add_long_l/activation	add_brev_l/activation	add_mag1_l/activation	add_mag2_l/activation	add_mag3_l/activation	tfl_l/activation	pect_l/activation	grac_l/activation	glut_max1_l/activation	glut_max2_l/activation	glut_max3_l/activation	iliacus_l/activation	psoas_l/activation	quad_fem_l/activation	gem_l/activation	peri_l/activation	rect_fem_l/activation	vas_med_l/activation	vas_int_l/activation	vas_lat_l/activation	med_gas_l/activation	lat_gas_l/activation	soleus_l/activation	tib_post_l/activation	flex_dig_l/activation	flex_hal_l/activation	tib_ant_l/activation	per_brev_l/activation	per_long_l/activation	per_tert_l/activation	ext_dig_l/activation	ext_hal_l/activation	ercspn_l/activation	intobl_l/activation	extobl_l/activation	glut_med1_r/activation	glut_med2_r/activation	glut_med3_r/activation	glut_min1_r/activation	glut_min2_r/activation	glut_min3_r/activation	semimem_r/activation	semiten_r/activation	bifemlh_r/activation	bifemsh_r/activation	sar_r/activation	add_long_r/activation	add_brev_r/activation	add_mag1_r/activation	add_mag2_r/activation	add_mag3_r/activation	tfl_r/activation	pect_r/activation	grac_r/activation	glut_max1_r/activation	glut_max2_r/activation	glut_max3_r/activation	iliacus_r/activation	psoas_r/activation	quad_fem_r/activation	gem_r/activation	peri_r/activation	rect_fem_r/activation	vas_med_r/activation	vas_int_r/activation	vas_lat_r/activation	med_gas_r/activation	lat_gas_r/activation	soleus_r/activation	tib_post_r/activation	flex_dig_r/activation	flex_hal_r/activation	tib_ant_r/activation	per_brev_r/activation	per_long_r/activation	per_tert_r/activation	ext_dig_r/activation	ext_hal_r/activation	ercspn_r/activation	intobl_r/activation	extobl_r/activation	
          0.00000000	         -2.91339369	          0.79552664	          5.21631482	          0.00000000	          0.87057350	         -0.00250612	        -18.10695961	          1.13495056	          5.69857072	         26.26916944	         -0.20302669	         -3.42803632	         -6.02616687	         -7.01361701	         -9.57064175	          5.63062934	          7.06046774	          3.09976197	          2.15716228	          0.07000019	         27.43776357	         -0.09555201	          0.63617258	         -3.05130565	         -1.64805132	          3.23594432	        -13.47837919	         11.35001456	         -9.59784106	        -13.45305591	         11.30783486	         27.76202024	         17.70102337	         86.51662706	         86.51662706	          0.24454563	          0.08217171	          0.07170328	          0.23256969	          0.14518268	          0.08217519	          0.05000368	          0.05000037	          0.05000033	          0.05000048	          0.09118805	          0.09697483	          0.05000105	          0.05000137	          0.05000366	          0.05000169	          0.21869512	          0.05230947	          0.05000233	          0.05001563	          0.05000585	          0.05000427	          0.34307384	          0.65425636	          0.05000326	          0.05000358	          0.05864718	          0.28442702	          0.09173645	          0.14307141	          0.05638752	          0.18443487	          0.26821400	          0.23338570	          0.22173422	          0.19491560	          0.26923183	          0.05000006	          0.08863076	          0.14622113	          0.05000038	          0.05000014	          0.05000040	          0.05000003	          0.05000006	          0.05000009	          0.13230975	          0.05000785	          0.11484772	          0.05000121	          0.05000151	          0.05005115	          0.05900520	          0.05900532	          0.11645070	          0.05000516	          0.05000383	          0.06379384	          0.11443137	          0.09404049	          0.17320639	          0.15718283	          0.05000218	          0.05006830	          0.05900448	          0.06962943	          0.13861760	          0.16682377	          0.05000063	          0.05000051	          0.14331745	          0.05000180	          0.05023146	          0.05000131	          0.07668377	          0.10370921	          0.05149075	          0.05870832	          0.05000369	          0.05900464	          0.05000044	          0.05900472	          0.05900461	          0.51569610	          0.31222797	          0.18166546	          0.35208277	          0.50890452	          0.31856486	          0.05044511	          0.13504193	          0.13138234	
          0.01080560	         -2.89361420	          0.84762043	          5.36186610	          0.01706643	          0.86918695	         -0.00235367	        -17.91053179	          0.98748311	          5.46946158	         25.81239391	         -0.05086962	         -3.20861442	         -8.18863270	         -7.22301003	        -10.25705392	          4.98314580	          8.13598914	          2.62909287	          1.96779394	          0.09518189	         28.24156510	         -0.08023679	          0.86359637	         -2.86982128	         -1.70575497	          2.98652090	        -13.50783246	         11.63556035	        -10.80000016	        -13.45162508	         11.14703184	         28.62784292	         17.71611726	         86.51662706	         86.51662706	          0.20722581	          0.06963159	          0.06076088	          0.19707765	          0.12302655	          0.06963458	          0.05000290	          0.05000034	          0.05000035	          0.05000039	          0.07727252	          0.16341263	          0.16779290	          0.07863754	          0.05001238	          0.05000151	          0.18532034	          0.09813407	          0.05001322	          0.05000333	          0.05000229	          0.05000257	          0.29071762	          0.56841232	          0.05734237	          0.05900888	          0.05900476	          0.24102082	          0.15936004	          0.15936050	          0.14618014	          0.15628839	          0.22728208	          0.19848987	          0.18789588	          0.16517053	          0.22814514	          0.05000005	          0.07510525	          0.14511973	          0.05000026	          0.05000007	          0.05000029	          0.05465535	          0.06963110	          0.05509572	          0.11211829	          0.05000366	          0.18098161	          0.05897119	          0.05003623	          0.05000167	          0.05000049	          0.05000070	          0.09867932	          0.05000018	          0.05000093	          0.05759318	          0.09697106	          0.22785802	          0.22863573	          0.16816137	          0.05000086	          0.05000507	          0.05000136	          0.05900500	          0.15968762	          0.20399932	          0.05000033	          0.05000053	          0.19146206	          0.09781433	          0.14193881	          0.06963139	          0.23203437	          0.25687383	          0.18876458	          0.05000000	          0.05000002	          0.05000000	          0.05000005	          0.05000053	          0.05000029	          0.60540571	          0.31283680	          0.17403045	          0.55867845	          0.56578641	          0.33548516	          0.05000005	          0.11443327	          0.11133217	
          0.02161120	         -2.86741767	          0.88113840	          5.48263989	          0.03435545	          0.86769964	         -0.00221007	        -17.61581970	          0.82900547	          5.23411091	         25.27044827	          0.06983763	         -2.94238687	        -10.52962002	         -8.04328005	        -10.90706854	          4.24794359	          9.19705087	          2.14309124	          1.69523948	         -0.05096735	         28.60237445	         -0.12079232	          1.10641648	         -2.65585859	         -1.75322212	          2.67784295	        -13.54048620	         11.88372854	        -12.00105064	        -13.46009803	         11.04840789	         29.48409648	         17.72186150	         86.51662706	         86.51662706	          0.20116106	          0.05900520	          0.05148855	          0.16700208	          0.10425166	          0.05900778	          0.05688570	          0.05000055	          0.05000083	          0.05000016	          0.06548043	          0.17412990	          0.33026552	          0.08067666	          0.05901080	          0.10986703	          0.15703885	          0.08315997	          0.05000220	          0.05021916	          0.05841550	          0.05900294	          0.24635143	          0.51094874	          0.05900418	          0.05000489	          0.05000031	          0.20423878	          0.13504053	          0.13504087	          0.12387193	          0.13243732	          0.19259674	          0.16819846	          0.15922130	          0.13996425	          0.19332828	          0.05000015	          0.06742779	          0.15272824	          0.05000031	          0.09306544	          0.05000076	          0.05233000	          0.05900477	          0.05900486	          0.26595239	          0.20811884	          0.31104958	          0.05000064	          0.05000065	          0.05000126	          0.07132895	          0.05000054	          0.09686040	          0.05000031	          0.05000342	          0.06963089	          0.08217338	          0.19308507	          0.19374496	          0.17680510	          0.05000155	          0.06954746	          0.05000842	          0.05000086	          0.17618578	          0.18539830	          0.05000593	          0.05000132	          0.16224331	          0.08288727	          0.12029911	          0.05900501	          0.19662383	          0.21767256	          0.15995742	          0.05900546	          0.05900628	          0.05900474	          0.05580022	          0.05900490	          0.05900488	          0.51301514	          0.34018281	          0.17629124	          0.47341896	          0.53412706	          0.28428707	          0.05000005	          0.09696970	          0.09434184	
          0.03241681	         -2.83807010	          0.90071828	          5.57628608	          0.05164796	          0.86610398	         -0.00206603	        -17.21552145	          0.67011810	          4.99464500	         24.62417085	          0.18385521	         -2.65630747	        -13.03785162	         -8.94130588	        -11.43060994	          3.75029414	         10.20617648	          1.62431967	          1.34897614	         -0.01337438	         28.29209610	         -0.17507287	          1.34402876	         -2.41678084	         -1.79042727	          2.34602444	        -13.57856525	         12.11154259	        -13.15486777	        -13.47928355	         11.03750475	         30.31940600	         17.69188015	         86.51662706	         86.51662706	          0.17046218	          0.05000051	          0.05000004	          0.14151910	          0.08834199	          0.05000274	          0.07752752	          0.05000071	          0.05000052	          0.05000069	          0.05900312	          0.20416080	          0.28424928	          0.06836554	          0.05000775	          0.09310116	          0.13307342	          0.07048516	          0.05000117	          0.05000089	          0.05000058	          0.05000071	          0.20875594	          0.45894553	          0.05000009	          0.05000035	          0.05000023	          0.17307004	          0.11443216	          0.11443244	          0.10496798	          0.11222616	          0.16320472	          0.14252982	          0.13492297	          0.11860479	          0.16382508	          0.06598618	          0.09697179	          0.12942060	          0.09697762	          0.16755693	          0.05331173	          0.08291966	          0.05000011	          0.05000023	          0.32262389	          0.33924529	          0.43050269	          0.18956512	          0.19352568	          0.31342422	          0.06244180	          0.08885395	          0.08207883	          0.06963348	          0.05000454	          0.05900480	          0.06963307	          0.16361877	          0.18056708	          0.19490751	          0.05000051	          0.05893556	          0.08134955	          0.23113216	          0.22330094	          0.21757269	          0.05000049	          0.05000040	          0.13748363	          0.07023871	          0.23806895	          0.05000032	          0.16661729	          0.18445379	          0.13554650	          0.05000069	          0.05000141	          0.05000007	          0.05000001	          0.05000038	          0.05000031	          0.64870134	          0.28826803	          0.14938767	          0.69389960	          0.61801250	          0.42765165	          0.05000068	          0.08217122	          0.07994440	
